<?xml version="1.0" encoding="UTF-8"?>
<svg version="1.1" xmlns="http://www.w3.org/2000/svg" width="128" height="128">
<path d="M0 0 C23.76 0 47.52 0 72 0 C72 1.32 72 2.64 72 4 C73.32 4 74.64 4 76 4 C76 7.96 76 11.92 76 16 C77.32 16 78.64 16 80 16 C80 21.94 80 27.88 80 34 C78.68 34 77.36 34 76 34 C76 35.32 76 36.64 76 38 C73.36 38 70.72 38 68 38 C68 39.32 68 40.64 68 42 C69.32 42 70.64 42 72 42 C72 43.32 72 44.64 72 46 C73.32 46 74.64 46 76 46 C76 55.9 76 65.8 76 76 C77.32 76 78.64 76 80 76 C80 81.94 80 87.88 80 94 C81.32 94 82.64 94 84 94 C84 99.94 84 105.88 84 112 C82.68 112 81.36 112 80 112 C80 113.32 80 114.64 80 116 C78.68 116 77.36 116 76 116 C76 118.64 76 121.28 76 124 C74.68 124 73.36 124 72 124 C72 125.32 72 126.64 72 128 C48.24 128 24.48 128 0 128 C0 126.68 0 125.36 0 124 C-1.32 124 -2.64 124 -4 124 C-4 121.36 -4 118.72 -4 116 C-5.32 116 -6.64 116 -8 116 C-8 114.68 -8 113.36 -8 112 C-9.32 112 -10.64 112 -12 112 C-12 106.06 -12 100.12 -12 94 C-10.68 94 -9.36 94 -8 94 C-8 88.06 -8 82.12 -8 76 C-6.68 76 -5.36 76 -4 76 C-4 66.1 -4 56.2 -4 46 C-2.68 46 -1.36 46 0 46 C0 44.68 0 43.36 0 42 C1.32 42 2.64 42 4 42 C4 40.68 4 39.36 4 38 C1.36 38 -1.28 38 -4 38 C-4 36.68 -4 35.36 -4 34 C-5.32 34 -6.64 34 -8 34 C-8 28.06 -8 22.12 -8 16 C-6.68 16 -5.36 16 -4 16 C-4 12.04 -4 8.08 -4 4 C-2.68 4 -1.36 4 0 4 C0 2.68 0 1.36 0 0 Z " fill="#2F5F81" transform="translate(28,0)"/>
<path d="M0 0 C1.32 0 2.64 0 4 0 C4 4.62 4 9.24 4 14 C6.64 14 9.28 14 12 14 C12 15.32 12 16.64 12 18 C10.68 18 9.36 18 8 18 C8 23.94 8 29.88 8 36 C10.64 36 13.28 36 16 36 C16 34.68 16 33.36 16 32 C34.48 32 52.96 32 72 32 C72 33.32 72 34.64 72 36 C74.64 36 77.28 36 80 36 C80 30.06 80 24.12 80 18 C78.68 18 77.36 18 76 18 C76 16.68 76 15.36 76 14 C78.64 14 81.28 14 84 14 C84 9.38 84 4.76 84 0 C85.32 0 86.64 0 88 0 C88 5.94 88 11.88 88 18 C89.32 18 90.64 18 92 18 C92 23.94 92 29.88 92 36 C90.68 36 89.36 36 88 36 C88 37.32 88 38.64 88 40 C86.68 40 85.36 40 84 40 C84 42.64 84 45.28 84 48 C82.68 48 81.36 48 80 48 C80 49.32 80 50.64 80 52 C56.24 52 32.48 52 8 52 C8 50.68 8 49.36 8 48 C6.68 48 5.36 48 4 48 C4 45.36 4 42.72 4 40 C2.68 40 1.36 40 0 40 C0 38.68 0 37.36 0 36 C-1.32 36 -2.64 36 -4 36 C-4 30.06 -4 24.12 -4 18 C-2.68 18 -1.36 18 0 18 C0 12.06 0 6.12 0 0 Z " fill="#080808" transform="translate(20,76)"/>
<path d="M0 0 C11.22 0 22.44 0 34 0 C34 1.32 34 2.64 34 4 C35.32 4 36.64 4 38 4 C38 7.96 38 11.92 38 16 C39.32 16 40.64 16 42 16 C42 21.94 42 27.88 42 34 C40.68 34 39.36 34 38 34 C38 35.32 38 36.64 38 38 C35.36 38 32.72 38 30 38 C30 39.32 30 40.64 30 42 C31.32 42 32.64 42 34 42 C34 43.32 34 44.64 34 46 C35.32 46 36.64 46 38 46 C38 55.9 38 65.8 38 76 C35.36 76 32.72 76 30 76 C30 66.1 30 56.2 30 46 C28.68 46 27.36 46 26 46 C26 43.36 26 40.72 26 38 C18.74 38 11.48 38 4 38 C4 28.1 4 18.2 4 8 C2.68 8 1.36 8 0 8 C0 5.36 0 2.72 0 0 Z " fill="#372F2A" transform="translate(66,0)"/>
<path d="M0 0 C11.22 0 22.44 0 34 0 C34 2.64 34 5.28 34 8 C32.68 8 31.36 8 30 8 C30 17.9 30 27.8 30 38 C22.74 38 15.48 38 8 38 C8 40.64 8 43.28 8 46 C6.68 46 5.36 46 4 46 C4 55.9 4 65.8 4 76 C1.36 76 -1.28 76 -4 76 C-4 66.1 -4 56.2 -4 46 C-2.68 46 -1.36 46 0 46 C0 44.68 0 43.36 0 42 C1.32 42 2.64 42 4 42 C4 40.68 4 39.36 4 38 C1.36 38 -1.28 38 -4 38 C-4 36.68 -4 35.36 -4 34 C-5.32 34 -6.64 34 -8 34 C-8 28.06 -8 22.12 -8 16 C-6.68 16 -5.36 16 -4 16 C-4 12.04 -4 8.08 -4 4 C-2.68 4 -1.36 4 0 4 C0 2.68 0 1.36 0 0 Z " fill="#3A302A" transform="translate(28,0)"/>
<path d="M0 0 C23.76 0 47.52 0 72 0 C72 3.96 72 7.92 72 12 C48.24 12 24.48 12 0 12 C0 8.04 0 4.08 0 0 Z " fill="#282828" transform="translate(28,116)"/>
<path d="M0 0 C5.94 0 11.88 0 18 0 C18 8.58 18 17.16 18 26 C19.32 26 20.64 26 22 26 C22 27.32 22 28.64 22 30 C14.74 30 7.48 30 0 30 C0 20.1 0 10.2 0 0 Z " fill="#080808" transform="translate(70,8)"/>
<path d="M0 0 C5.94 0 11.88 0 18 0 C18 9.9 18 19.8 18 30 C10.74 30 3.48 30 -4 30 C-4 28.68 -4 27.36 -4 26 C-2.68 26 -1.36 26 0 26 C0 17.42 0 8.84 0 0 Z " fill="#080808" transform="translate(40,8)"/>
<path d="M0 0 C1.32 0 2.64 0 4 0 C4 1.32 4 2.64 4 4 C5.32 4 6.64 4 8 4 C8 2.68 8 1.36 8 0 C9.32 0 10.64 0 12 0 C12 11.22 12 22.44 12 34 C10.68 34 9.36 34 8 34 C8 37.96 8 41.92 8 46 C6.68 46 5.36 46 4 46 C4 42.04 4 38.08 4 34 C2.68 34 1.36 34 0 34 C0 22.78 0 11.56 0 0 Z " fill="#213F55" transform="translate(56,58)"/>
<path d="M0 0 C1.32 0 2.64 0 4 0 C4 5.94 4 11.88 4 18 C5.32 18 6.64 18 8 18 C8 23.94 8 29.88 8 36 C4.04 36 0.08 36 -4 36 C-4 30.06 -4 24.12 -4 18 C-5.32 18 -6.64 18 -8 18 C-8 16.68 -8 15.36 -8 14 C-5.36 14 -2.72 14 0 14 C0 9.38 0 4.76 0 0 Z " fill="#494949" transform="translate(104,76)"/>
<path d="M0 0 C1.32 0 2.64 0 4 0 C4 4.62 4 9.24 4 14 C6.64 14 9.28 14 12 14 C12 15.32 12 16.64 12 18 C10.68 18 9.36 18 8 18 C8 23.94 8 29.88 8 36 C4.04 36 0.08 36 -4 36 C-4 30.06 -4 24.12 -4 18 C-2.68 18 -1.36 18 0 18 C0 12.06 0 6.12 0 0 Z " fill="#494949" transform="translate(20,76)"/>
<path d="M0 0 C23.76 0 47.52 0 72 0 C72 1.32 72 2.64 72 4 C48.24 4 24.48 4 0 4 C0 2.68 0 1.36 0 0 Z " fill="#080808" transform="translate(28,124)"/>
<path d="M0 0 C2.64 0 5.28 0 8 0 C8 9.9 8 19.8 8 30 C5.36 30 2.72 30 0 30 C0 20.1 0 10.2 0 0 Z " fill="#213F55" transform="translate(24,46)"/>
<path d="M0 0 C1.32 0 2.64 0 4 0 C4 9.9 4 19.8 4 30 C5.32 30 6.64 30 8 30 C8 33.3 8 36.6 8 40 C5.36 40 2.72 40 0 40 C0 26.8 0 13.6 0 0 Z " fill="#CBDBFC" transform="translate(92,46)"/>
<path d="M0 0 C1.32 0 2.64 0 4 0 C4 13.2 4 26.4 4 40 C1.36 40 -1.28 40 -4 40 C-4 36.7 -4 33.4 -4 30 C-2.68 30 -1.36 30 0 30 C0 20.1 0 10.2 0 0 Z " fill="#CBDBFC" transform="translate(32,46)"/>
<path d="M0 0 C15.84 0 31.68 0 48 0 C48 1.32 48 2.64 48 4 C32.16 4 16.32 4 0 4 C0 2.68 0 1.36 0 0 Z " fill="#282828" transform="translate(40,108)"/>
<path d="M0 0 C15.84 0 31.68 0 48 0 C48 1.32 48 2.64 48 4 C32.16 4 16.32 4 0 4 C0 2.68 0 1.36 0 0 Z " fill="#D9A066" transform="translate(40,104)"/>
<path d="M0 0 C1.32 0 2.64 0 4 0 C4 1.32 4 2.64 4 4 C5.32 4 6.64 4 8 4 C8 2.68 8 1.36 8 0 C9.32 0 10.64 0 12 0 C12 4.62 12 9.24 12 14 C8.04 14 4.08 14 0 14 C0 9.38 0 4.76 0 0 Z " fill="#080808" transform="translate(56,58)"/>
<path d="M0 0 C2.64 0 5.28 0 8 0 C8 5.94 8 11.88 8 18 C5.36 18 2.72 18 0 18 C0 12.06 0 6.12 0 0 Z " fill="#494949" transform="translate(20,16)"/>
<path d="M0 0 C11.22 0 22.44 0 34 0 C34 1.32 34 2.64 34 4 C22.78 4 11.56 4 0 4 C0 2.68 0 1.36 0 0 Z " fill="#080808" transform="translate(66,0)"/>
<path d="M0 0 C11.22 0 22.44 0 34 0 C34 1.32 34 2.64 34 4 C22.78 4 11.56 4 0 4 C0 2.68 0 1.36 0 0 Z " fill="#080808" transform="translate(28,0)"/>
<path d="M0 0 C1.32 0 2.64 0 4 0 C4 1.32 4 2.64 4 4 C5.32 4 6.64 4 8 4 C8 6.64 8 9.28 8 12 C6.68 12 5.36 12 4 12 C4 13.32 4 14.64 4 16 C2.68 16 1.36 16 0 16 C0 14.68 0 13.36 0 12 C-1.32 12 -2.64 12 -4 12 C-4 9.36 -4 6.72 -4 4 C-2.68 4 -1.36 4 0 4 C0 2.68 0 1.36 0 0 Z " fill="#393939" transform="translate(60,46)"/>
<path d="M0 0 C4.62 0 9.24 0 14 0 C14 3.96 14 7.92 14 12 C12.68 12 11.36 12 10 12 C10 10.68 10 9.36 10 8 C6.7 8 3.4 8 0 8 C0 5.36 0 2.72 0 0 Z " fill="#D9A066" transform="translate(74,12)"/>
<path d="M0 0 C4.62 0 9.24 0 14 0 C14 2.64 14 5.28 14 8 C10.7 8 7.4 8 4 8 C4 9.32 4 10.64 4 12 C2.68 12 1.36 12 0 12 C0 8.04 0 4.08 0 0 Z " fill="#D9A066" transform="translate(40,12)"/>
<path d="M0 0 C1.32 0 2.64 0 4 0 C4 9.9 4 19.8 4 30 C2.68 30 1.36 30 0 30 C0 20.1 0 10.2 0 0 Z " fill="#080808" transform="translate(100,46)"/>
<path d="M0 0 C1.32 0 2.64 0 4 0 C4 9.9 4 19.8 4 30 C2.68 30 1.36 30 0 30 C0 20.1 0 10.2 0 0 Z " fill="#213F55" transform="translate(96,46)"/>
<path d="M0 0 C1.32 0 2.64 0 4 0 C4 9.9 4 19.8 4 30 C2.68 30 1.36 30 0 30 C0 20.1 0 10.2 0 0 Z " fill="#080808" transform="translate(24,46)"/>
<path d="M0 0 C1.32 0 2.64 0 4 0 C4 5.94 4 11.88 4 18 C1.36 18 -1.28 18 -4 18 C-4 15.36 -4 12.72 -4 10 C-2.68 10 -1.36 10 0 10 C0 6.7 0 3.4 0 0 Z " fill="#494949" transform="translate(96,94)"/>
<path d="M0 0 C1.32 0 2.64 0 4 0 C4 3.3 4 6.6 4 10 C5.32 10 6.64 10 8 10 C8 12.64 8 15.28 8 18 C5.36 18 2.72 18 0 18 C0 12.06 0 6.12 0 0 Z " fill="#494949" transform="translate(28,94)"/>
<path d="M0 0 C1.32 0 2.64 0 4 0 C4 5.94 4 11.88 4 18 C0.04 18 -3.92 18 -8 18 C-8 16.68 -8 15.36 -8 14 C-5.36 14 -2.72 14 0 14 C0 9.38 0 4.76 0 0 Z " fill="#080808" transform="translate(104,76)"/>
<path d="M0 0 C1.32 0 2.64 0 4 0 C4 4.62 4 9.24 4 14 C6.64 14 9.28 14 12 14 C12 15.32 12 16.64 12 18 C8.04 18 4.08 18 0 18 C0 12.06 0 6.12 0 0 Z " fill="#080808" transform="translate(20,76)"/>
<path d="M0 0 C3.3 0 6.6 0 10 0 C10 3.3 10 6.6 10 10 C6.7 10 3.4 10 0 10 C0 6.7 0 3.4 0 0 Z " fill="#D9A066" transform="translate(74,24)"/>
<path d="M0 0 C3.3 0 6.6 0 10 0 C10 3.3 10 6.6 10 10 C6.7 10 3.4 10 0 10 C0 6.7 0 3.4 0 0 Z " fill="#D9A066" transform="translate(44,24)"/>
<path d="M0 0 C1.32 0 2.64 0 4 0 C4 4.62 4 9.24 4 14 C0.04 14 -3.92 14 -8 14 C-8 12.68 -8 11.36 -8 10 C-5.36 10 -2.72 10 0 10 C0 6.7 0 3.4 0 0 Z " fill="#213F55" transform="translate(100,76)"/>
<path d="M0 0 C1.32 0 2.64 0 4 0 C4 3.3 4 6.6 4 10 C6.64 10 9.28 10 12 10 C12 11.32 12 12.64 12 14 C8.04 14 4.08 14 0 14 C0 9.38 0 4.76 0 0 Z " fill="#213F55" transform="translate(24,76)"/>
<path d="M0 0 C1.32 0 2.64 0 4 0 C4 5.94 4 11.88 4 18 C2.68 18 1.36 18 0 18 C0 12.06 0 6.12 0 0 Z " fill="#080808" transform="translate(108,94)"/>
<path d="M0 0 C1.32 0 2.64 0 4 0 C4 5.94 4 11.88 4 18 C2.68 18 1.36 18 0 18 C0 12.06 0 6.12 0 0 Z " fill="#393939" transform="translate(100,94)"/>
<path d="M0 0 C1.32 0 2.64 0 4 0 C4 5.94 4 11.88 4 18 C2.68 18 1.36 18 0 18 C0 12.06 0 6.12 0 0 Z " fill="#393939" transform="translate(24,94)"/>
<path d="M0 0 C1.32 0 2.64 0 4 0 C4 5.94 4 11.88 4 18 C2.68 18 1.36 18 0 18 C0 12.06 0 6.12 0 0 Z " fill="#080808" transform="translate(16,94)"/>
<path d="M0 0 C1.32 0 2.64 0 4 0 C4 5.94 4 11.88 4 18 C2.68 18 1.36 18 0 18 C0 12.06 0 6.12 0 0 Z " fill="#080808" transform="translate(104,16)"/>
<path d="M0 0 C1.32 0 2.64 0 4 0 C4 5.94 4 11.88 4 18 C2.68 18 1.36 18 0 18 C0 12.06 0 6.12 0 0 Z " fill="#494949" transform="translate(100,16)"/>
<path d="M0 0 C1.32 0 2.64 0 4 0 C4 5.94 4 11.88 4 18 C2.68 18 1.36 18 0 18 C0 12.06 0 6.12 0 0 Z " fill="#080808" transform="translate(20,16)"/>
<path d="M0 0 C1.32 0 2.64 0 4 0 C4 3.96 4 7.92 4 12 C1.36 12 -1.28 12 -4 12 C-4 10.68 -4 9.36 -4 8 C-2.68 8 -1.36 8 0 8 C0 5.36 0 2.72 0 0 Z " fill="#080808" transform="translate(100,4)"/>
<path d="M0 0 C1.32 0 2.64 0 4 0 C4 2.64 4 5.28 4 8 C5.32 8 6.64 8 8 8 C8 9.32 8 10.64 8 12 C5.36 12 2.72 12 0 12 C0 8.04 0 4.08 0 0 Z " fill="#080808" transform="translate(24,4)"/>
<path d="M0 0 C1.32 0 2.64 0 4 0 C4 1.32 4 2.64 4 4 C5.32 4 6.64 4 8 4 C8 5.32 8 6.64 8 8 C5.36 8 2.72 8 0 8 C0 5.36 0 2.72 0 0 Z " fill="#080808" transform="translate(88,12)"/>
<path d="M0 0 C1.32 0 2.64 0 4 0 C4 2.64 4 5.28 4 8 C1.36 8 -1.28 8 -4 8 C-4 6.68 -4 5.36 -4 4 C-2.68 4 -1.36 4 0 4 C0 2.68 0 1.36 0 0 Z " fill="#080808" transform="translate(36,12)"/>
<path d="M0 0 C1.32 0 2.64 0 4 0 C4 2.64 4 5.28 4 8 C2.68 8 1.36 8 0 8 C0 5.36 0 2.72 0 0 Z " fill="#9BADB7" transform="translate(96,116)"/>
<path d="M0 0 C1.32 0 2.64 0 4 0 C4 2.64 4 5.28 4 8 C2.68 8 1.36 8 0 8 C0 5.36 0 2.72 0 0 Z " fill="#9BADB7" transform="translate(28,116)"/>
<path d="M0 0 C1.32 0 2.64 0 4 0 C4 2.64 4 5.28 4 8 C2.68 8 1.36 8 0 8 C0 5.36 0 2.72 0 0 Z " fill="#D9A066" transform="translate(92,104)"/>
<path d="M0 0 C1.32 0 2.64 0 4 0 C4 2.64 4 5.28 4 8 C2.68 8 1.36 8 0 8 C0 5.36 0 2.72 0 0 Z " fill="#D9A066" transform="translate(32,104)"/>
<path d="M0 0 C2.64 0 5.28 0 8 0 C8 1.32 8 2.64 8 4 C5.36 4 2.72 4 0 4 C0 2.68 0 1.36 0 0 Z " fill="#14232E" transform="translate(28,42)"/>
<path d="M0 0 C2.64 0 5.28 0 8 0 C8 1.32 8 2.64 8 4 C5.36 4 2.72 4 0 4 C0 2.68 0 1.36 0 0 Z " fill="#080808" transform="translate(96,34)"/>
<path d="M0 0 C2.64 0 5.28 0 8 0 C8 1.32 8 2.64 8 4 C5.36 4 2.72 4 0 4 C0 2.68 0 1.36 0 0 Z " fill="#080808" transform="translate(24,34)"/>
<path d="M0 0 C2.64 0 5.28 0 8 0 C8 1.32 8 2.64 8 4 C5.36 4 2.72 4 0 4 C0 2.68 0 1.36 0 0 Z " fill="#282828" transform="translate(88,20)"/>
<path d="M0 0 C2.64 0 5.28 0 8 0 C8 1.32 8 2.64 8 4 C5.36 4 2.72 4 0 4 C0 2.68 0 1.36 0 0 Z " fill="#282828" transform="translate(32,20)"/>
<path d="M0 0 C1.32 0 2.64 0 4 0 C4 2.64 4 5.28 4 8 C2.68 8 1.36 8 0 8 C0 5.36 0 2.72 0 0 Z " fill="#306082" transform="translate(96,4)"/>
<path d="M0 0 C1.32 0 2.64 0 4 0 C4 2.64 4 5.28 4 8 C2.68 8 1.36 8 0 8 C0 5.36 0 2.72 0 0 Z " fill="#306082" transform="translate(28,4)"/>
</svg>
